<?xml version="1.0" standalone="no"?>
<!DOCTYPE svg PUBLIC "-//W3C//DTD SVG 20010904//EN"
 "http://www.w3.org/TR/2001/REC-SVG-20010904/DTD/svg10.dtd">
<svg version="1.0" xmlns="http://www.w3.org/2000/svg"
 width="1280.000000pt" height="1186.000000pt" viewBox="0 0 1280.000000 1186.000000"
 preserveAspectRatio="xMidYMid meet">

<g transform="translate(0.000000,1186.000000) scale(0.100000,-0.100000)"
fill="#000000" stroke="none">
<path d="M5810 10817 c0 -29 -47 -97 -87 -125 -16 -11 -44 -24 -63 -29 l-35
-9 45 -12 c59 -15 117 -72 133 -129 l11 -43 19 49 c22 60 72 107 132 123 l43
12 -51 17 c-62 21 -111 71 -127 128 -12 46 -20 53 -20 18z"/>
<path d="M6115 10557 c-6 -12 -25 -32 -44 -44 -28 -19 -30 -23 -13 -23 22 0
62 -43 62 -68 0 -8 10 0 23 19 12 18 33 39 45 45 l22 11 -25 11 c-14 6 -33 25
-43 41 -18 29 -18 29 -27 8z"/>
<path d="M5457 10544 c-11 -14 -30 -30 -43 -36 l-25 -12 31 -13 c19 -7 36 -24
43 -42 l11 -29 21 31 c11 18 30 36 42 42 20 11 20 11 -9 28 -16 9 -32 26 -35
37 -7 26 -14 25 -36 -6z"/>
<path d="M5026 10387 c-9 -47 -55 -101 -98 -114 l-33 -10 35 -15 c47 -21 79
-57 95 -109 9 -29 14 -36 14 -21 2 50 51 111 105 132 l29 11 -43 22 c-51 25
-79 60 -89 108 l-7 34 -8 -38z"/>
<path d="M6543 10360 c-23 -52 -39 -68 -89 -85 l-36 -12 49 -24 c38 -19 53
-34 73 -73 l24 -50 8 31 c10 38 60 91 94 99 26 7 33 24 9 24 -25 0 -94 70
-103 104 l-9 31 -20 -45z"/>
<path d="M5632 10210 c-223 -31 -441 -122 -566 -236 l-49 -44 -109 0 -108 0 0
-1395 c0 -767 4 -1395 8 -1395 5 0 33 17 63 38 443 308 1193 712 1734 935 61
25 137 57 170 70 l60 25 3 861 2 861 -114 0 c-92 0 -116 3 -127 16 -20 25
-119 98 -170 126 -81 45 -221 96 -324 118 -113 24 -368 35 -473 20z"/>
<path d="M9710 9255 c0 -5 79 -138 272 -459 43 -71 76 -131 74 -133 -1 -2 -81
-15 -177 -29 -1152 -168 -2244 -489 -3291 -968 -462 -210 -1033 -520 -1461
-791 -263 -167 -689 -462 -867 -599 -36 -28 -112 -86 -170 -130 -674 -514
-1485 -1279 -2141 -2021 -219 -248 -377 -433 -499 -585 -19 -24 -46 -58 -61
-75 -14 -16 -42 -51 -63 -77 l-38 -48 1225 0 1225 0 136 205 c255 382 562 772
893 1135 226 246 622 635 853 837 183 160 350 300 509 426 47 37 93 74 103 82
9 7 83 63 165 124 81 61 153 114 158 119 142 110 738 511 920 619 28 17 88 54
135 83 46 28 103 62 125 75 22 12 114 65 205 117 458 263 1100 579 1465 721
277 107 443 164 580 197 103 25 135 26 135 2 0 -20 -46 -456 -55 -515 l-5 -38
62 44 c35 24 99 68 143 99 85 58 406 283 490 342 28 19 154 107 280 195 127
88 270 188 319 223 50 35 126 88 170 119 45 30 108 75 141 98 33 24 86 59 117
79 31 21 57 40 58 43 0 3 -62 20 -137 37 -316 73 -763 174 -973 222 -124 27
-272 61 -330 75 -178 42 -677 155 -684 155 -3 0 -6 -2 -6 -5z"/>
<path d="M7290 6292 c-592 -398 -973 -699 -1410 -1114 -162 -155 -255 -249
-500 -508 -89 -93 -444 -501 -532 -611 l-37 -45 -3 -337 -3 -337 1017 0 1018
0 2 792 3 792 155 -199 c85 -110 170 -220 190 -245 20 -25 231 -296 470 -602
l432 -558 1392 0 c765 -1 1422 -2 1459 -3 37 -2 70 -1 72 1 2 3 -24 28 -59 56
-34 28 -129 105 -211 171 -81 66 -250 203 -375 305 -125 102 -315 256 -421
342 -222 179 -364 295 -600 487 -92 75 -255 208 -364 296 -109 88 -313 254
-454 368 -141 115 -294 239 -341 277 -47 38 -177 144 -290 236 -113 92 -225
183 -250 203 -25 20 -54 43 -65 53 -147 121 -247 198 -257 197 -7 0 -24 -8
-38 -17z"/>
<path d="M1340 2980 c0 -66 0 -123 -1 -127 0 -5 7 -9 15 -11 14 -3 16 11 16
89 0 51 4 89 8 84 5 -6 24 -47 42 -92 22 -55 39 -83 49 -83 10 0 29 31 53 88
l37 87 1 -87 c0 -81 2 -88 20 -88 19 0 20 7 20 130 0 130 0 130 -23 130 -21 0
-29 -13 -63 -100 -21 -55 -42 -100 -45 -100 -3 0 -23 45 -44 100 -34 86 -43
100 -62 100 -23 0 -23 -2 -23 -120z"/>
<path d="M1716 3083 c-3 -10 -21 -74 -41 -143 -20 -69 -38 -133 -41 -142 -4
-13 0 -18 13 -18 15 0 26 29 64 160 40 142 43 160 28 160 -10 0 -20 -8 -23
-17z"/>
<path d="M1800 3082 c-16 -13 -23 -29 -22 -53 1 -39 18 -54 86 -74 65 -20 80
-40 50 -69 -22 -22 -70 -20 -94 4 -23 23 -50 26 -50 7 0 -29 48 -60 94 -61
109 -2 148 113 49 144 -82 25 -93 32 -93 56 0 17 7 25 25 30 34 8 75 -3 75
-21 0 -8 9 -15 20 -15 11 0 20 7 20 15 0 8 -9 24 -20 35 -27 27 -108 28 -140
2z"/>
<path d="M2100 2945 c0 -13 357 -15 3284 -15 2131 0 3287 3 3291 10 8 13 -328
15 -3707 18 -2557 2 -2868 1 -2868 -13z"/>
<path d="M3796 2645 c-215 -55 -355 -270 -316 -487 38 -214 203 -348 430 -348
115 0 225 37 316 106 l34 27 -2 176 -3 176 -177 3 -178 2 0 -80 0 -80 90 0 91
0 -3 -62 c-3 -60 -4 -61 -43 -82 -31 -16 -58 -21 -120 -21 -69 0 -86 4 -127
28 -57 33 -90 75 -112 140 -56 168 58 347 222 347 62 0 135 -23 180 -57 19
-14 37 -21 41 -17 96 114 103 124 91 140 -64 76 -280 123 -414 89z"/>
<path d="M6105 2649 c-132 -27 -241 -112 -303 -238 -36 -72 -37 -79 -37 -181
0 -97 2 -110 32 -172 74 -156 220 -247 398 -248 174 0 318 87 392 238 37 74
38 79 38 187 0 108 -1 113 -37 186 -51 103 -136 177 -243 212 -65 21 -176 29
-240 16z m193 -183 c26 -13 60 -37 76 -52 90 -90 93 -258 5 -358 -48 -54 -103
-77 -186 -77 -264 0 -340 383 -98 492 59 26 145 24 203 -5z"/>
<path d="M7090 2647 c-202 -46 -332 -208 -331 -413 1 -203 106 -349 293 -405
56 -17 87 -20 161 -17 107 6 181 29 264 85 l58 38 3 183 2 182 -177 -2 -178
-3 -3 -77 -3 -78 91 0 90 0 0 -60 c0 -70 -12 -82 -99 -101 -174 -37 -313 73
-314 248 -1 114 44 193 137 240 80 41 187 27 282 -37 l32 -20 48 60 c27 33 49
65 49 72 0 19 -90 76 -147 93 -73 21 -193 27 -258 12z"/>
<path d="M8305 2653 c-100 -22 -166 -67 -201 -136 -22 -41 -28 -124 -15 -175
24 -87 101 -141 262 -183 109 -28 157 -53 165 -83 16 -65 -26 -99 -119 -98
-72 1 -130 21 -195 65 -24 16 -47 25 -52 21 -4 -5 -28 -33 -53 -63 l-45 -55
37 -29 c153 -124 424 -138 538 -28 57 55 84 156 64 238 -23 91 -90 139 -264
189 -131 38 -167 60 -167 105 0 81 116 96 248 32 40 -20 74 -34 76 -32 1 2 22
32 44 66 l42 62 -26 20 c-81 64 -247 105 -339 84z"/>
<path d="M10307 2649 c-155 -30 -275 -141 -318 -296 -67 -242 66 -478 301
-532 98 -23 228 -8 310 34 47 24 120 85 120 99 0 6 -24 36 -54 65 l-55 54 -32
-27 c-59 -50 -106 -68 -180 -68 -83 0 -143 30 -189 93 -42 59 -53 101 -48 185
6 92 41 155 110 197 86 53 181 49 276 -13 l60 -38 57 64 56 64 -28 25 c-91 83
-247 120 -386 94z"/>
<path d="M11040 2645 c-68 -19 -113 -49 -145 -96 -65 -92 -59 -216 13 -292 38
-41 84 -62 205 -96 58 -16 119 -37 137 -47 51 -31 54 -83 7 -118 -56 -42 -199
-16 -297 54 -17 12 -34 19 -38 16 -4 -2 -29 -32 -55 -64 l-47 -60 33 -24 c89
-68 194 -102 317 -102 77 0 104 4 145 23 98 44 149 117 149 216 1 78 -8 107
-46 150 -41 47 -102 77 -223 110 -140 38 -165 54 -165 105 0 84 120 98 254 30
32 -16 61 -28 65 -25 4 2 26 31 50 64 l42 60 -41 30 c-89 64 -256 95 -360 66z"/>
<path d="M1335 2637 c-3 -6 -4 -192 -3 -412 l3 -400 88 -3 87 -3 0 128 0 129
48 47 48 48 128 -176 127 -175 105 0 c57 0 104 3 104 6 0 3 -76 109 -170 235
-93 127 -170 232 -170 235 0 3 72 80 160 172 88 91 160 169 160 174 0 4 -46 8
-102 8 l-103 0 -45 -49 c-25 -28 -99 -108 -165 -179 l-120 -130 -3 179 -2 179
-86 0 c-58 0 -86 -4 -89 -13z"/>
<path d="M2205 2637 c-3 -6 -4 -192 -3 -412 l3 -400 88 -3 87 -3 0 416 0 415
-85 0 c-59 0 -87 -4 -90 -13z"/>
<path d="M2582 2238 l3 -413 88 -3 87 -3 0 261 0 261 58 -73 c32 -40 122 -158
201 -261 l144 -188 74 3 74 3 -1 383 c0 210 0 396 0 412 l0 30 -85 0 -85 0 0
-250 c0 -137 -3 -250 -8 -250 -4 0 -13 10 -21 23 -8 12 -93 124 -189 250
l-176 227 -83 0 -83 0 2 -412z"/>
<path d="M5070 2235 l0 -415 293 2 c271 3 292 4 291 21 -1 9 -2 45 -3 80 l-1
62 -197 0 -198 0 -5 330 -5 330 -87 3 -88 3 0 -416z"/>
<path d="M7725 2637 c-3 -6 -4 -192 -3 -412 l3 -400 88 -3 87 -3 0 416 0 415
-85 0 c-59 0 -87 -4 -90 -13z"/>
<path d="M8799 2638 c-1 -7 -1 -44 -1 -83 l0 -70 124 -5 123 -5 2 -325 3 -325
85 -3 85 -3 0 331 0 330 125 0 125 0 0 85 0 85 -335 0 c-261 0 -335 -3 -336
-12z"/>
<path d="M9630 2235 l0 -415 85 0 85 0 0 415 0 415 -85 0 -85 0 0 -415z"/>
<path d="M3984 1524 c-88 -22 -135 -78 -136 -163 0 -97 49 -142 200 -182 99
-27 132 -49 132 -90 0 -87 -146 -104 -254 -29 l-44 29 -23 -31 c-34 -44 -30
-58 22 -89 90 -53 230 -64 312 -24 45 21 85 76 87 120 5 80 0 97 -37 135 -38
36 -70 51 -188 85 -102 29 -133 80 -79 130 43 40 137 31 207 -18 16 -10 29
-18 31 -16 25 35 46 69 46 77 0 6 -28 24 -62 41 -72 35 -144 43 -214 25z"/>
<path d="M4648 1529 c-107 -17 -211 -102 -243 -200 -36 -108 -7 -241 70 -324
83 -88 241 -116 356 -63 176 80 237 297 129 461 -64 95 -188 146 -312 126z
m164 -125 c56 -39 87 -102 88 -177 0 -132 -79 -217 -204 -217 -208 0 -272 314
-84 409 62 32 143 25 200 -15z"/>
<path d="M7369 1529 c-140 -21 -253 -153 -253 -299 -1 -95 26 -164 88 -226 64
-63 130 -88 232 -88 163 1 290 122 302 287 15 207 -156 358 -369 326z m129
-105 c156 -65 177 -294 34 -385 -43 -28 -53 -30 -114 -27 -56 3 -73 8 -105 34
-104 82 -115 254 -21 341 54 51 138 66 206 37z"/>
<path d="M8697 1529 c-101 -16 -157 -75 -157 -168 0 -102 34 -134 198 -182
102 -30 132 -49 132 -86 0 -39 -18 -62 -59 -74 -55 -16 -119 -4 -183 35 l-55
33 -31 -38 c-29 -34 -30 -38 -14 -52 76 -67 230 -96 331 -62 84 27 126 104
110 198 -11 69 -67 109 -204 146 -44 12 -90 32 -102 43 -37 34 -29 79 18 103
44 23 100 18 165 -15 32 -16 59 -28 59 -27 0 1 13 19 28 39 l27 37 -22 15
c-74 48 -159 68 -241 55z"/>
<path d="M5150 1226 l0 -304 208 2 207 1 3 48 3 47 -160 0 -161 0 0 255 0 255
-50 0 -50 0 0 -304z"/>
<path d="M5652 1313 c3 -213 4 -219 30 -273 47 -96 156 -143 280 -121 72 13
117 39 152 89 41 60 46 92 46 314 l0 208 -49 0 -50 0 -3 -213 c-3 -235 -6
-248 -71 -287 -42 -26 -121 -26 -163 -1 -60 37 -69 73 -70 296 l-2 200 -52 3
-52 3 4 -218z"/>
<path d="M6270 1480 l0 -50 95 0 95 0 0 -249 c0 -275 -4 -261 66 -261 20 0 34
5 34 13 1 6 1 121 1 255 l0 242 98 0 97 0 0 48 -1 47 -242 3 -243 2 0 -50z"/>
<path d="M6880 1523 c-1 -9 -1 -584 0 -595 0 -5 15 -8 34 -8 70 0 66 -19 66
311 l0 299 -50 0 c-27 0 -50 -3 -50 -7z"/>
<path d="M7870 1230 c0 -165 3 -300 8 -301 111 -15 104 -29 100 207 -2 112 0
204 3 204 3 0 79 -94 167 -208 l162 -209 38 2 c20 1 40 3 45 4 4 0 7 136 7
302 l0 300 -52 -3 -53 -3 -1 -200 c-1 -110 -4 -200 -7 -200 -3 0 -76 91 -162
203 l-157 202 -49 0 -49 0 0 -300z"/>
</g>
</svg>
