<?xml version="1.0" standalone="no"?>
<!DOCTYPE svg PUBLIC "-//W3C//DTD SVG 20010904//EN"
 "http://www.w3.org/TR/2001/REC-SVG-20010904/DTD/svg10.dtd">
<svg version="1.0" xmlns="http://www.w3.org/2000/svg"
 width="4030.000000pt" height="1728.000000pt" viewBox="0 0 4030.000000 1728.000000"
 preserveAspectRatio="xMidYMid meet">

<g transform="translate(0.000000,1728.000000) scale(0.100000,-0.100000)"
fill="#000000" stroke="none">
<path d="M29865 17109 c-104 -19 -187 -39 -240 -59 -44 -17 -120 -53 -125 -59
-3 -3 -21 -18 -40 -32 -19 -15 -44 -35 -56 -45 -12 -11 -45 -39 -74 -64 -29
-25 -57 -50 -64 -55 -6 -6 -40 -35 -76 -65 -35 -30 -74 -64 -85 -75 -12 -11
-37 -31 -55 -45 -18 -14 -43 -34 -54 -45 -12 -11 -46 -40 -76 -65 -30 -25 -65
-55 -77 -67 -13 -12 -39 -34 -60 -50 -21 -15 -47 -37 -59 -48 -42 -40 -84 -75
-90 -75 -3 0 -18 -12 -33 -27 -14 -16 -55 -53 -91 -83 -36 -30 -67 -57 -70
-60 -3 -3 -34 -30 -70 -60 -36 -30 -70 -59 -76 -65 -6 -5 -30 -26 -53 -45 -23
-19 -65 -56 -94 -82 -29 -26 -55 -48 -59 -48 -4 0 -22 -15 -41 -32 -18 -18
-62 -58 -97 -88 -36 -30 -67 -57 -70 -60 -3 -3 -30 -25 -60 -50 -30 -25 -61
-51 -68 -58 -31 -28 -50 -31 -158 -21 -60 5 -156 14 -214 19 -58 5 -152 14
-210 20 -58 6 -151 16 -207 21 -57 5 -149 13 -205 18 -57 5 -150 14 -208 20
-151 16 -309 31 -430 41 -58 5 -154 14 -215 20 -141 14 -291 28 -429 40 l-110
9 -60 -67 c-34 -36 -79 -85 -101 -107 -39 -40 -127 -133 -270 -285 -39 -41
-126 -136 -195 -210 -69 -74 -141 -151 -160 -170 -19 -20 -69 -74 -110 -120
-41 -47 -88 -99 -105 -116 -16 -17 -73 -77 -125 -134 -52 -57 -104 -113 -115
-125 -11 -11 -63 -67 -115 -125 -52 -57 -106 -115 -120 -129 -14 -14 -47 -51
-74 -81 -27 -30 -72 -80 -100 -110 -28 -30 -80 -89 -116 -130 -36 -41 -67 -77
-70 -80 -3 -3 -30 -34 -60 -70 -30 -36 -59 -70 -65 -76 -5 -6 -30 -35 -55 -64
-25 -29 -50 -58 -55 -64 -6 -6 -35 -40 -65 -76 -30 -36 -66 -76 -80 -90 -14
-14 -37 -41 -51 -60 -15 -19 -52 -62 -83 -95 -31 -32 -56 -61 -56 -63 0 -2
-30 -38 -66 -80 -86 -99 -160 -185 -204 -236 -19 -23 -42 -48 -50 -56 -9 -8
-26 -28 -39 -45 -23 -30 -98 -117 -177 -204 -23 -26 -50 -57 -60 -70 -21 -27
-201 -238 -290 -340 -37 -43 -60 -71 -154 -181 -40 -47 -82 -96 -94 -110 -11
-14 -46 -54 -76 -90 -30 -36 -62 -72 -70 -80 -9 -8 -26 -28 -39 -45 -12 -16
-39 -48 -60 -70 -20 -22 -46 -52 -57 -67 -12 -15 -51 -60 -87 -100 -35 -40
-77 -89 -93 -108 -16 -19 -35 -42 -44 -50 -8 -8 -40 -44 -70 -80 -30 -36 -57
-67 -60 -70 -3 -3 -34 -39 -70 -80 -35 -41 -67 -77 -70 -80 -3 -3 -41 -48 -84
-100 -44 -52 -87 -102 -95 -111 -9 -9 -27 -29 -41 -45 -26 -31 -119 -140 -156
-184 -12 -14 -66 -76 -120 -139 -55 -63 -115 -133 -134 -156 -34 -41 -401
-468 -524 -610 -34 -38 -68 -77 -76 -85 -8 -8 -40 -44 -70 -80 -30 -36 -57
-67 -60 -70 -3 -3 -18 -21 -34 -40 -16 -19 -54 -64 -85 -99 -31 -35 -60 -71
-66 -80 -9 -16 -8 -517 2 -558 4 -19 14 -22 81 -28 43 -3 91 -8 107 -10 18 -3
45 2 65 13 19 10 73 39 120 64 47 25 189 101 315 168 127 68 264 141 305 163
41 22 104 55 140 75 36 19 103 55 150 80 47 25 148 79 225 120 141 76 497 265
681 362 54 29 142 76 194 105 52 29 152 82 221 118 69 36 261 138 427 226 165
88 367 195 449 237 81 43 150 80 153 83 3 4 41 25 85 47 120 61 304 159 605
322 96 53 200 109 230 125 30 16 84 45 120 65 36 19 117 62 180 95 63 33 138
72 165 87 63 35 336 180 480 255 123 64 260 137 320 170 66 36 153 65 196 65
55 0 97 -20 144 -69 l39 -41 -2 -163 c-3 -245 -13 -480 -23 -498 -4 -9 -23
-22 -41 -29 -35 -14 -100 -43 -193 -85 -31 -14 -58 -25 -60 -25 -7 0 -89 -36
-138 -61 -22 -10 -43 -19 -47 -19 -8 0 -153 -60 -265 -110 -47 -20 -161 -69
-190 -80 -11 -4 -51 -22 -88 -39 -37 -17 -72 -31 -78 -31 -5 0 -17 -4 -27 -9
-23 -12 -112 -51 -137 -61 -11 -5 -41 -17 -67 -29 -26 -12 -50 -21 -53 -21 -2
0 -34 -13 -70 -30 -36 -16 -68 -30 -70 -30 -3 0 -24 -8 -48 -19 -37 -16 -89
-38 -182 -76 -16 -7 -56 -25 -88 -39 -32 -14 -64 -26 -72 -26 -8 0 -15 -4 -15
-10 0 -5 -7 -10 -15 -10 -8 0 -50 -16 -92 -36 -43 -20 -94 -42 -113 -49 -50
-18 -187 -74 -237 -96 -24 -11 -62 -27 -85 -38 -24 -10 -59 -24 -78 -31 -19
-7 -60 -24 -90 -37 -30 -14 -77 -34 -105 -45 -27 -11 -73 -30 -103 -44 -29
-13 -56 -24 -61 -24 -4 0 -21 -6 -37 -14 -47 -23 -113 -51 -199 -86 -44 -18
-113 -48 -153 -66 -41 -19 -78 -34 -83 -34 -5 0 -17 -4 -27 -9 -40 -21 -113
-51 -125 -51 -7 0 -17 -4 -22 -9 -6 -5 -59 -30 -120 -56 -110 -46 -186 -78
-280 -121 -27 -12 -106 -45 -175 -74 -69 -28 -138 -58 -154 -66 -16 -8 -33
-14 -38 -14 -8 0 -36 -12 -148 -62 -25 -11 -54 -24 -65 -28 -11 -4 -42 -17
-70 -28 -27 -11 -102 -42 -165 -67 -63 -26 -139 -58 -168 -71 -29 -13 -56 -24
-61 -24 -5 0 -37 -13 -72 -29 -35 -16 -120 -52 -189 -81 -69 -28 -143 -60
-165 -70 -22 -9 -76 -32 -120 -50 -100 -40 -142 -58 -179 -76 -16 -8 -33 -14
-37 -14 -26 0 -207 -97 -256 -137 -124 -101 -120 -84 -126 -583 -2 -223 -2
-410 0 -416 2 -7 54 -9 162 -6 l158 5 6 -24 c5 -23 29 -119 75 -304 35 -142
36 -154 10 -164 -13 -4 -68 -11 -123 -14 -55 -4 -228 -16 -385 -27 -157 -11
-350 -25 -430 -30 -80 -5 -242 -16 -360 -24 -326 -24 -480 -35 -647 -46 -84
-5 -222 -15 -305 -20 -84 -6 -207 -15 -273 -20 -185 -15 -373 -28 -700 -50
-165 -11 -394 -27 -510 -35 -115 -8 -253 -17 -305 -20 -52 -3 -151 -10 -220
-15 -69 -5 -228 -17 -355 -25 -253 -17 -606 -42 -700 -50 -33 -3 -132 -10
-220 -15 -88 -5 -218 -14 -290 -20 -307 -23 -409 -31 -560 -40 -88 -5 -220
-14 -293 -20 -72 -6 -205 -15 -295 -20 -89 -5 -223 -14 -297 -20 -74 -6 -207
-15 -295 -20 -88 -5 -218 -14 -290 -19 -71 -6 -233 -17 -360 -26 -126 -8 -286
-19 -355 -25 -154 -12 -386 -28 -500 -35 -47 -2 -170 -11 -275 -19 -104 -8
-266 -20 -360 -26 -257 -16 -691 -46 -855 -60 -63 -5 -160 -12 -215 -15 -126
-7 -337 -22 -509 -35 -147 -11 -353 -25 -576 -40 -80 -5 -207 -14 -282 -20
-75 -5 -237 -17 -360 -25 -123 -8 -279 -19 -348 -25 -69 -5 -195 -14 -280 -20
-85 -5 -250 -17 -367 -25 -117 -9 -281 -20 -365 -25 -84 -5 -326 -20 -538 -34
-334 -22 -459 -30 -750 -51 -30 -2 -129 -9 -220 -15 -91 -5 -226 -15 -300 -20
-128 -9 -400 -27 -775 -51 -93 -5 -214 -14 -268 -18 -241 -20 -813 73 -1118
182 -358 128 -648 358 -850 672 -65 102 -79 127 -127 240 -99 233 -134 400
-136 655 -2 333 92 669 263 940 23 36 45 74 50 85 26 55 194 250 307 355 103
96 344 270 374 270 5 0 10 5 10 10 0 6 6 10 13 10 8 0 48 18 91 40 42 22 84
40 92 40 7 0 14 5 14 10 0 6 6 10 13 10 7 0 62 16 122 35 105 34 177 52 300
75 94 18 536 24 765 11 181 -11 247 -16 430 -37 79 -8 253 -35 315 -47 l60
-12 36 -130 c20 -71 54 -194 74 -272 38 -144 55 -177 78 -154 15 15 24 818 10
832 -6 6 -34 6 -74 -2 -96 -17 -762 -23 -1049 -9 -455 22 -604 23 -759 6 -134
-15 -358 -55 -426 -76 -16 -5 -66 -20 -110 -34 -230 -68 -479 -190 -685 -334
-240 -168 -495 -426 -650 -657 -29 -44 -61 -92 -71 -106 -39 -58 -160 -320
-190 -409 -121 -367 -129 -810 -20 -1145 56 -176 150 -362 245 -489 258 -344
638 -592 1074 -702 231 -58 333 -67 692 -60 173 3 390 9 482 13 109 4 172 2
180 -4 9 -7 295 -13 833 -17 451 -3 890 -8 975 -11 85 -3 387 -7 670 -11 283
-3 518 -9 523 -13 4 -4 2 -41 -4 -82 -6 -41 -13 -90 -15 -109 -3 -19 -7 -42
-10 -50 -3 -8 -14 -64 -24 -125 -10 -60 -37 -209 -60 -330 -53 -286 -113 -606
-200 -1075 -11 -58 -29 -157 -41 -220 -45 -256 -48 -271 -104 -573 -49 -267
-52 -296 -32 -302 18 -6 1508 -24 1523 -18 7 2 17 32 23 66 11 62 48 270 76
421 8 44 12 83 9 88 -3 5 -1 14 4 21 5 7 15 48 21 92 7 44 16 98 21 120 5 22
14 72 20 110 16 96 48 279 60 343 5 28 14 76 20 105 5 28 18 99 29 157 11 58
29 161 41 230 12 69 28 161 36 205 9 44 19 105 24 135 10 63 36 213 79 454 17
93 30 171 29 175 -1 3 2 14 7 24 4 10 4 22 -1 27 -5 4 -107 13 -226 19 -120 6
-245 14 -278 18 l-60 6 -20 -46 c-39 -89 -123 -134 -199 -107 -57 20 -92 50
-113 96 -37 85 10 226 94 282 35 22 55 28 120 31 55 2 92 -2 121 -12 65 -25
367 -26 5872 -33 2767 -4 5064 -8 5105 -9 67 -1 2191 -7 2316 -5 l51 0 7 72
c3 40 13 181 21 313 27 439 46 710 50 731 3 11 46 53 96 94 127 101 144 144
112 277 -4 19 -9 21 -58 16 -29 -3 -66 -3 -81 1 l-27 7 7 87 c29 369 36 476
36 536 0 70 -16 146 -32 146 -4 0 -8 6 -8 14 0 21 -59 76 -103 97 -103 46
-237 16 -410 -93 -26 -17 -50 -29 -52 -26 -2 2 -1 61 2 130 7 147 -15 124 178
183 66 21 212 66 325 102 113 35 232 73 265 83 33 10 165 51 294 90 222 69
237 72 310 68 185 -11 313 -156 312 -354 -1 -132 18 -305 40 -376 40 -126 107
-160 271 -140 46 6 142 16 213 22 72 6 263 24 425 40 162 16 345 34 405 40
110 11 191 19 380 40 l100 12 113 129 c62 71 150 173 195 226 l82 96 6 531 c5
512 6 534 28 606 47 156 134 266 245 308 28 11 193 57 366 101 173 45 392 103
485 128 149 41 182 47 270 48 89 0 106 -3 155 -28 67 -33 97 -59 138 -124 42
-66 68 -144 87 -262 9 -53 31 -193 51 -311 46 -284 53 -322 64 -405 6 -38 14
-92 19 -120 4 -27 29 -178 56 -335 26 -157 52 -291 57 -297 6 -7 22 -19 37
-26 37 -20 131 -71 225 -124 93 -51 46 -51 411 -7 121 15 226 32 232 38 10 9
2 32 -35 106 -156 314 -212 700 -212 1465 l0 290 -40 240 c-21 132 -44 267
-50 300 -42 242 -108 643 -146 880 -2 17 -11 66 -19 110 -8 44 -19 152 -25
240 -20 312 -63 785 -105 1170 -48 433 -111 1114 -130 1409 -17 267 -20 716
-4 837 6 46 21 121 35 165 23 77 27 84 72 112 26 17 63 37 82 45 19 9 51 22
70 30 59 26 168 47 239 47 221 0 394 -86 545 -273 34 -42 38 -53 32 -85 -13
-85 -76 -182 -198 -306 -48 -48 -96 -107 -107 -131 -26 -56 -38 -152 -29 -250
3 -44 9 -118 12 -165 4 -47 11 -128 16 -180 12 -114 27 -271 40 -435 6 -66 12
-138 15 -160 2 -22 7 -69 10 -105 3 -36 7 -94 10 -130 3 -36 17 -184 31 -330
39 -418 44 -467 54 -600 52 -679 62 -733 155 -819 87 -80 135 -85 475 -42 260
33 522 63 556 64 29 1 104 -44 249 -149 62 -44 206 -176 294 -268 36 -38 76
-80 89 -93 12 -13 22 -26 22 -28 0 -2 26 -39 58 -82 69 -91 202 -308 202 -329
0 -8 4 -14 9 -14 5 0 15 -20 22 -45 7 -25 18 -45 23 -45 5 0 6 -3 3 -7 -4 -3
-2 -12 3 -18 11 -13 60 -142 91 -240 30 -94 86 -341 98 -435 52 -417 32 -887
-59 -1375 -11 -60 -26 -137 -32 -170 -6 -33 -11 -71 -12 -85 l-1 -25 95 1 c52
1 196 6 320 13 510 26 613 32 785 41 99 5 275 14 390 20 116 5 296 14 400 20
105 5 242 12 305 15 185 9 482 25 660 35 91 5 226 12 300 15 74 3 155 8 180
10 25 2 115 7 200 10 85 4 209 11 275 16 l120 9 135 -69 c74 -38 160 -83 190
-99 30 -17 134 -71 230 -120 96 -49 191 -98 210 -109 126 -71 209 -113 224
-113 25 0 20 -37 -6 -44 -13 -3 -46 -6 -75 -6 -29 0 -96 -4 -150 -10 -54 -5
-129 -12 -168 -14 -177 -12 -345 -25 -395 -30 -30 -3 -86 -8 -125 -10 -187
-14 -475 -35 -605 -46 -228 -19 -367 -30 -505 -40 -77 -6 -185 -15 -240 -20
-55 -5 -167 -14 -250 -20 -169 -12 -320 -24 -575 -45 -96 -8 -240 -20 -320
-25 -80 -6 -194 -15 -255 -20 -142 -13 -165 -12 -165 1 0 12 70 94 203 241 39
43 80 92 91 109 19 31 19 31 0 26 -10 -3 -71 -8 -134 -12 -63 -3 -162 -10
-220 -15 -58 -5 -148 -12 -200 -15 -253 -14 -538 -34 -910 -62 -58 -4 -152 -8
-210 -8 -88 0 -111 4 -145 22 -133 71 -167 209 -130 540 30 265 13 991 -31
1313 -56 414 -146 685 -316 946 -166 254 -404 377 -670 344 -115 -14 -163 -28
-264 -76 -64 -31 -97 -57 -174 -134 -52 -53 -115 -123 -140 -156 -25 -32 -48
-60 -52 -62 -5 -2 -8 -8 -8 -13 0 -5 -22 -41 -49 -81 -99 -148 -190 -375 -233
-583 -20 -96 -23 -138 -22 -325 0 -221 8 -294 49 -475 56 -249 135 -447 273
-690 214 -376 531 -688 813 -802 38 -15 69 -32 69 -36 0 -7 -63 -87 -98 -126
-23 -24 -86 -29 -406 -30 -603 -2 -1196 -16 -1207 -29 -3 -4 -16 -61 -28 -127
-13 -66 -30 -145 -37 -175 -8 -30 -23 -98 -34 -150 -12 -52 -29 -133 -40 -180
-10 -47 -33 -150 -50 -230 -18 -80 -35 -161 -40 -180 -4 -19 -22 -102 -40
-185 -17 -82 -36 -168 -41 -190 -17 -75 -32 -165 -28 -170 5 -4 1020 -12 2679
-20 2082 -10 2985 -16 3009 -21 l24 -5 -7 -102 c-4 -56 -12 -149 -16 -207 -9
-99 -13 -142 -40 -415 -6 -60 -15 -156 -20 -212 -6 -57 -15 -151 -20 -210 -6
-60 -15 -157 -20 -218 -6 -60 -14 -155 -20 -210 -5 -55 -14 -149 -20 -210 -11
-128 -22 -239 -60 -630 -19 -199 -31 -319 -40 -400 -4 -44 -13 -134 -19 -200
-7 -66 -14 -131 -16 -144 -2 -13 0 -32 5 -41 12 -22 125 -26 1133 -41 562 -8
732 -8 743 2 8 6 14 29 14 52 0 44 53 680 91 1077 5 58 23 256 39 440 16 184
37 407 45 495 8 88 20 212 25 275 6 63 22 233 35 378 14 145 25 272 25 282 0
14 -9 20 -32 24 -69 10 -720 16 -738 6 -10 -5 -34 -25 -53 -44 -47 -45 -95
-60 -172 -53 -75 7 -108 21 -158 66 -68 62 -84 103 -79 199 2 26 14 45 55 85
66 67 142 93 241 84 65 -6 168 -48 202 -82 12 -12 44 -15 152 -16 75 0 166 -2
202 -4 36 -2 369 -6 740 -9 371 -3 837 -8 1035 -11 198 -3 527 -7 730 -10 204
-3 376 -1 383 3 14 10 18 67 52 867 11 259 25 562 31 675 5 113 11 304 12 425
l2 220 -297 5 c-193 3 -301 9 -308 16 -8 8 4 24 42 59 49 46 219 203 382 356
148 138 209 189 230 194 11 3 134 14 271 25 138 10 378 31 535 45 595 52 595
52 679 90 104 48 170 138 185 252 6 45 4 53 -12 62 -11 6 -21 8 -24 6 -2 -2
-85 -9 -183 -15 -99 -6 -250 -15 -335 -20 -85 -6 -231 -14 -325 -20 -93 -5
-242 -14 -330 -20 -88 -6 -239 -15 -335 -20 -96 -5 -249 -14 -340 -19 -91 -6
-208 -13 -260 -16 -52 -3 -124 -8 -160 -10 -36 -3 -150 -9 -255 -15 -104 -6
-262 -15 -350 -21 -284 -18 -465 -28 -690 -38 -121 -6 -296 -16 -390 -21 -93
-6 -255 -15 -360 -20 -104 -5 -264 -14 -355 -20 -91 -5 -214 -12 -275 -15
-288 -15 -622 -36 -640 -40 -11 -2 -73 -5 -138 -6 -65 -1 -153 -5 -195 -9 -42
-5 -189 -14 -327 -20 -137 -6 -313 -15 -390 -20 -77 -6 -300 -19 -495 -30
-195 -11 -431 -24 -525 -30 -225 -14 -304 -15 -315 -4 -13 13 -45 733 -33 745
11 11 606 34 1483 59 195 5 407 12 470 15 63 2 228 7 365 10 138 3 282 8 320
10 39 2 169 7 290 10 121 3 276 8 345 10 421 17 1434 48 1935 60 127 3 280 7
340 10 131 5 597 18 1065 30 118 3 283 7 365 10 83 3 296 10 475 15 179 6 359
13 400 15 41 2 94 4 118 4 l42 1 0 58 c0 31 -4 95 -10 142 -5 47 -18 186 -30
310 -19 214 -41 437 -75 780 -9 85 -21 202 -26 260 -5 58 -15 153 -22 211
l-12 106 -106 119 c-59 66 -151 169 -204 229 -54 61 -104 114 -112 118 -8 5
-847 10 -1866 13 -2202 4 -3738 17 -3760 31 -9 6 -146 42 -190 50 -15 3 -30 9
-33 14 -3 5 -14 9 -25 9 -10 0 -27 4 -37 9 -9 6 -44 20 -77 31 -33 12 -64 25
-70 29 -5 4 -37 18 -70 31 -95 38 -288 139 -421 220 -38 24 -84 51 -103 62
-39 22 -153 98 -161 107 -3 3 -48 38 -100 77 -93 69 -203 128 -325 173 -33 13
-69 27 -80 31 -11 5 -31 11 -45 15 -14 3 -59 15 -100 25 -150 39 -335 51 -520
35 -75 -6 -112 -13 -250 -44 -169 -39 -408 -151 -613 -289 -121 -82 -172 -96
-328 -95 -130 2 -190 25 -263 103 -86 92 -89 106 -83 384 6 272 17 340 71 451
41 84 108 163 194 232 106 85 306 196 452 252 74 29 144 56 155 61 11 5 128
50 260 100 260 99 263 100 317 124 20 9 38 16 41 16 7 0 332 127 374 146 17 8
34 14 38 14 4 0 21 7 38 14 44 21 292 116 300 116 4 0 26 8 50 19 23 10 78 32
122 49 44 16 166 64 270 105 394 155 640 204 1065 214 241 5 309 1 650 -37 47
-5 177 -18 290 -29 113 -11 324 -34 470 -51 339 -39 494 -56 650 -70 69 -6
154 -16 190 -21 55 -8 506 -55 865 -90 55 -5 136 -14 180 -19 256 -29 508 -55
855 -90 58 -6 141 -15 185 -21 44 -5 152 -16 240 -25 88 -8 279 -28 425 -45
336 -37 470 -46 470 -31 0 7 -4 12 -10 12 -5 0 -10 6 -10 14 0 48 -286 604
-449 874 -14 24 -30 51 -36 60 -15 26 -168 246 -175 252 -3 3 -30 37 -60 75
-193 248 -437 486 -655 640 -156 111 -357 224 -495 279 -36 15 -72 30 -80 35
-41 22 -128 42 -400 93 -59 11 -127 24 -175 33 -144 29 -400 78 -440 85 -43 7
-565 107 -650 124 -33 7 -53 11 -170 32 -44 8 -100 19 -125 24 -25 6 -67 14
-95 19 -27 6 -144 28 -260 51 -115 23 -237 46 -270 51 -55 9 -212 39 -540 105
-71 14 -152 30 -180 34 -27 5 -72 14 -100 19 -27 6 -75 15 -105 21 -30 5 -98
18 -150 28 -178 37 -345 70 -510 102 -91 17 -228 45 -306 61 -78 16 -161 32
-185 35 -80 10 -313 11 -364 3z m7460 -6781 c76 -41 115 -113 115 -216 1 -79
27 -338 36 -353 4 -8 3 -9 -4 -5 -7 4 -12 1 -12 -8 0 -9 4 -16 9 -16 5 0 11
-39 14 -87 3 -49 9 -117 12 -152 4 -43 3 -61 -4 -57 -7 5 -8 1 -5 -9 6 -15
-22 -44 -70 -72 -29 -17 -937 -18 -969 -2 -38 20 -86 71 -96 103 -9 27 -29
214 -61 576 -19 215 -12 262 44 292 42 23 108 26 531 25 377 -2 434 -4 460
-19z m-4740 -59 c24 -6 53 -20 64 -30 12 -11 21 -16 21 -12 0 4 6 -1 14 -12
24 -36 28 -71 56 -485 21 -311 22 -341 16 -364 -9 -36 -58 -83 -96 -92 -39 -9
-830 -7 -896 2 -50 7 -111 54 -130 101 -14 33 -54 584 -54 744 0 72 2 81 28
110 21 23 41 34 73 39 75 12 855 11 904 -1z m-5016 -263 c23 -28 35 -125 21
-180 -7 -28 -16 -55 -20 -61 -4 -5 -10 -23 -13 -40 -10 -51 -37 -159 -46 -180
-12 -29 -30 -149 -42 -293 -30 -343 37 -691 197 -1031 20 -40 40 -78 45 -85
72 -87 159 -242 159 -284 0 -61 -40 -66 -143 -19 -80 38 -110 69 -219 227
-193 282 -290 532 -319 827 -31 318 33 622 203 964 66 133 141 199 177 155z
m-24399 -795 c0 -13 -65 -21 -185 -21 -312 0 -724 -88 -1013 -216 -283 -125
-440 -223 -643 -400 -125 -109 -206 -194 -286 -301 -188 -248 -303 -473 -372
-730 -47 -175 -55 -242 -55 -468 0 -188 3 -222 26 -331 35 -162 77 -284 148
-429 234 -479 743 -836 1335 -939 204 -35 472 -39 694 -10 48 6 53 5 49 -12
-6 -31 -70 -38 -353 -38 -264 0 -334 5 -535 41 -298 52 -595 165 -805 306
-326 220 -569 533 -688 887 -104 308 -112 610 -27 967 27 114 101 325 121 348
5 5 9 15 9 23 0 18 87 173 156 277 163 248 415 492 673 652 326 202 603 308
971 370 130 22 780 42 780 24z m28410 -4550 c0 -6 -4 -13 -10 -16 -5 -3 -10 1
-10 9 0 9 5 16 10 16 6 0 10 -4 10 -9z"/>
<path d="M31670 9910 c0 -5 4 -10 9 -10 6 0 13 5 16 10 3 6 -1 10 -9 10 -9 0
-16 -4 -16 -10z"/>
<path d="M21661 9186 c-9 -11 -8 -15 5 -20 23 -9 38 8 21 23 -11 9 -17 8 -26
-3z"/>
<path d="M24630 9044 c-156 -28 -322 -140 -377 -254 -44 -93 -95 -288 -124
-473 -17 -108 -6 -375 20 -492 57 -260 183 -482 403 -710 48 -49 87 -97 88
-106 0 -14 -39 -69 -151 -216 l-40 -53 -157 -1 c-86 0 -204 -2 -262 -4 -252
-9 -1457 -30 -1679 -30 l-243 0 -20 52 c-30 82 -112 142 -243 179 -81 23 -247
15 -325 -15 -30 -11 -56 -21 -58 -21 -2 0 0 141 3 313 7 277 6 318 -9 369 -18
61 -75 142 -123 175 -161 111 -374 92 -494 -45 -76 -86 -102 -215 -81 -397 24
-202 73 -294 263 -490 139 -143 162 -173 154 -197 -2 -7 -9 -56 -15 -108 -16
-143 -19 -169 -30 -240 -5 -36 -14 -112 -21 -170 -6 -58 -19 -166 -29 -240
-27 -196 -36 -269 -80 -635 -40 -332 -53 -431 -70 -560 -5 -38 -19 -146 -30
-240 -11 -93 -24 -199 -29 -235 -6 -36 -15 -101 -21 -145 -15 -109 -18 -116
-43 -114 -12 0 -88 1 -169 0 l-147 -1 -6 -47 c-14 -116 -26 -208 -44 -338 -45
-322 -44 -317 -30 -326 8 -5 77 -9 154 -9 77 0 146 -4 154 -9 14 -9 11 -67 -9
-196 -32 -203 -64 -408 -70 -455 -21 -151 -33 -280 -28 -286 3 -3 154 -10 335
-15 180 -5 488 -13 683 -19 430 -12 580 -14 586 -7 3 2 20 123 39 268 72 567
95 735 106 773 l11 39 708 -7 c686 -6 709 -6 719 12 6 11 19 70 30 133 24 140
49 270 62 326 5 23 9 53 9 67 l0 25 -117 3 c-65 2 -352 5 -638 7 -286 2 -563
6 -615 10 l-95 6 3 55 c2 30 30 275 63 544 33 269 57 492 52 496 -10 10 -348
30 -506 30 -103 0 -121 -3 -145 -20 -63 -46 -161 -33 -224 30 -38 37 -38 38
-38 116 1 93 19 137 69 171 55 37 88 41 272 33 96 -5 453 -14 794 -19 341 -6
699 -14 795 -16 96 -3 418 -9 715 -15 297 -5 603 -12 680 -15 77 -2 156 -2
176 1 l35 6 38 161 c21 89 67 279 101 422 35 143 87 357 116 475 113 471 159
644 172 657 12 13 162 39 632 113 105 17 206 33 225 38 l35 7 0 105 0 105 -55
0 c-30 -1 -181 -7 -335 -15 -154 -8 -349 -15 -434 -15 l-155 0 -74 108 -75
109 17 81 c22 106 31 337 18 454 -41 357 -243 788 -409 873 -15 8 -30 18 -33
21 -3 3 -32 16 -65 29 -59 22 -203 35 -265 24z m4 -352 c38 -40 41 -82 16
-187 -27 -110 -50 -285 -50 -383 0 -110 34 -306 75 -427 7 -22 32 -86 54 -143
23 -56 41 -112 41 -123 0 -26 -43 -69 -70 -69 -31 0 -94 35 -123 69 -29 35
-110 223 -132 307 -42 164 -59 467 -35 610 41 240 60 304 106 343 45 40 81 40
118 3z"/>
<path d="M19148 8775 c-3 -3 -56 -19 -119 -35 -63 -16 -139 -35 -169 -44 -110
-30 -166 -45 -222 -60 -32 -9 -84 -23 -115 -32 -188 -51 -667 -177 -988 -259
-167 -42 -268 -69 -500 -131 -49 -13 -178 -46 -285 -73 -107 -27 -229 -59
-270 -70 -185 -49 -315 -83 -445 -117 -321 -82 -397 -103 -510 -140 -44 -14
-105 -32 -135 -40 -74 -20 -140 -45 -140 -54 0 -4 17 -3 38 1 134 31 382 71
677 108 196 25 678 88 780 101 44 6 132 17 195 25 63 7 187 23 275 35 88 11
230 30 315 40 85 11 223 29 305 40 83 11 224 29 315 40 186 23 526 69 795 106
99 14 183 28 186 32 3 4 14 121 23 261 16 228 15 286 -6 266z"/>
<path d="M18980 7724 c-63 -12 -167 -33 -230 -44 -63 -12 -158 -30 -210 -41
-52 -10 -135 -26 -185 -35 -103 -18 -114 -20 -370 -68 -104 -20 -217 -41 -250
-47 -33 -6 -80 -15 -105 -20 -25 -5 -94 -18 -155 -28 -97 -18 -420 -77 -545
-101 -50 -9 -224 -40 -400 -72 -136 -24 -129 -22 -475 -88 -148 -28 -292 -55
-320 -60 -68 -12 -308 -58 -370 -70 -64 -13 -286 -56 -590 -114 -329 -63 -384
-73 -510 -96 -96 -18 -306 -57 -485 -91 -30 -5 -75 -14 -100 -19 -25 -5 -76
-14 -115 -21 -38 -6 -90 -17 -115 -24 -44 -13 -44 -13 -12 -14 19 -1 86 3 150
9 177 14 501 37 857 60 176 11 457 32 625 45 574 46 1121 84 1645 115 427 25
631 38 815 50 80 6 249 17 375 25 537 34 1254 84 1293 90 31 6 32 8 27 41 -11
71 -15 101 -20 159 -5 57 -39 354 -51 443 -6 51 -5 51 -174 16z"/>
<path d="M16158 4834 c-3 -5 -9 -40 -12 -79 -9 -92 -43 -381 -56 -470 -5 -38
-14 -115 -21 -170 -6 -55 -15 -117 -20 -138 -9 -34 -11 -36 -26 -22 -23 23
-89 115 -181 250 -86 128 -208 304 -257 373 l-30 42 -466 0 c-366 0 -469 -3
-477 -13 -12 -14 -11 -8 -82 -447 -64 -392 -75 -460 -100 -605 -11 -66 -48
-284 -80 -485 -33 -201 -64 -392 -70 -425 -6 -33 -17 -100 -25 -150 -8 -49
-19 -114 -25 -144 -5 -29 -10 -67 -10 -82 l0 -29 528 2 527 3 12 90 c6 50 15
115 18 145 3 30 11 89 16 130 16 120 49 389 59 465 4 39 15 131 24 205 9 74
21 162 26 195 6 33 10 84 10 113 l0 52 -243 0 c-180 0 -247 3 -259 13 -14 11
-14 24 -4 110 7 53 18 103 25 110 15 15 239 22 399 12 l113 -7 36 -57 c83
-128 325 -528 354 -584 17 -31 15 -47 -76 -762 -20 -159 -22 -202 -12 -211 8
-8 161 -15 516 -24 483 -12 505 -12 518 6 7 10 13 30 13 45 0 14 11 120 25
235 14 115 30 252 35 304 6 52 17 145 25 205 8 61 29 225 45 365 33 275 53
444 100 835 43 353 59 494 62 541 l3 42 -110 6 c-211 11 -842 19 -847 10z"/>
<path d="M8585 4687 c-2 -7 -11 -57 -20 -112 -9 -55 -21 -118 -25 -140 -39
-195 -53 -266 -61 -300 -4 -22 -13 -69 -19 -105 -6 -36 -17 -94 -25 -130 -8
-36 -19 -92 -25 -125 -6 -33 -16 -78 -20 -100 -5 -22 -19 -92 -30 -155 -12
-63 -29 -149 -37 -190 -9 -41 -18 -86 -20 -100 -3 -14 -25 -126 -50 -250 -25
-124 -48 -236 -50 -250 -3 -14 -12 -59 -20 -100 -9 -41 -19 -95 -23 -120 -4
-25 -13 -67 -19 -95 -36 -168 -51 -247 -57 -302 l-7 -61 64 -6 c114 -11 964
-12 965 -1 0 6 4 37 9 70 5 33 9 65 10 70 1 6 4 21 7 35 4 14 16 79 28 145 11
66 25 143 30 170 5 28 17 91 25 140 22 122 34 165 45 165 13 0 71 -64 140
-155 65 -86 286 -367 316 -403 l21 -26 472 -4 c326 -3 471 -1 471 6 0 6 -30
59 -67 119 -36 59 -75 124 -87 143 -28 48 -64 103 -76 118 -6 6 -8 12 -5 12 2
0 -16 32 -41 71 -56 88 -80 137 -71 145 4 4 51 11 104 15 161 13 230 47 335
167 49 56 86 134 93 197 3 33 13 105 20 160 8 55 16 116 19 135 4 39 48 356
72 520 9 58 22 158 30 222 7 64 18 136 23 160 5 24 13 80 16 124 l7 82 -68 5
c-38 2 -211 6 -384 7 -173 1 -333 4 -355 5 -22 2 -395 8 -830 15 -434 6 -798
13 -808 15 -10 2 -20 -2 -22 -8z m945 -418 c324 -8 469 -14 477 -22 8 -9 9
-27 3 -62 -5 -27 -14 -81 -20 -120 -6 -38 -22 -137 -36 -220 -14 -82 -29 -172
-34 -200 -26 -175 -44 -263 -57 -284 l-15 -24 -217 7 c-119 4 -229 9 -245 12
-27 6 -28 8 -23 53 3 25 13 89 22 141 8 52 18 109 21 125 6 38 32 176 44 235
5 25 12 75 16 111 l6 66 -129 6 c-70 4 -167 7 -214 7 -47 0 -107 3 -133 6
l-47 7 6 76 c4 42 11 81 16 87 5 7 28 10 52 8 23 -2 251 -8 507 -15z"/>
<path d="M11585 4618 c-3 -13 -11 -61 -19 -108 -8 -47 -21 -119 -30 -160 -8
-41 -20 -111 -26 -155 -7 -44 -16 -96 -20 -115 -5 -19 -18 -91 -30 -160 -11
-69 -25 -150 -31 -180 -24 -123 -29 -150 -49 -270 -12 -69 -25 -145 -30 -170
-5 -25 -13 -72 -19 -105 -6 -33 -18 -96 -27 -140 -9 -44 -20 -105 -25 -135
-11 -78 -40 -240 -90 -510 -39 -208 -51 -281 -48 -284 2 -2 228 -6 501 -10
559 -7 500 -15 513 74 3 25 10 65 15 90 5 25 23 126 40 225 16 99 35 203 40
230 6 28 19 102 31 165 11 63 25 121 31 128 15 18 521 17 536 -1 11 -13 10
-22 -27 -257 -5 -30 -23 -137 -40 -238 -17 -100 -31 -187 -31 -192 0 -6 185
-10 505 -10 l504 0 10 37 c6 21 18 85 26 143 8 58 17 121 20 140 3 19 15 96
25 170 11 74 24 160 30 190 16 97 20 122 41 260 11 74 24 160 29 190 5 30 16
102 24 160 9 58 20 132 26 165 5 33 19 123 30 200 12 77 25 163 30 190 5 28
14 84 20 125 17 116 31 201 41 249 6 24 9 45 7 46 -2 2 -167 6 -368 9 -201 3
-491 8 -645 11 -154 3 -444 7 -645 10 -201 3 -478 8 -617 11 l-252 6 -6 -24z
m973 -37 c3 -8 -1 -12 -9 -9 -7 2 -15 10 -17 17 -3 8 1 12 9 9 7 -2 15 -10 17
-17z m77 -337 c105 -3 213 -9 240 -13 l50 -7 -3 -54 c-2 -49 -13 -133 -42
-320 -5 -30 -13 -84 -18 -120 -35 -223 -54 -340 -63 -374 l-11 -39 -186 6
c-103 4 -212 7 -242 7 -30 0 -60 4 -66 8 -11 7 -7 45 26 262 6 41 15 102 20
135 5 33 14 86 19 118 22 119 31 173 31 193 0 21 -5 21 -262 30 l-263 9 3 63
c2 35 7 75 13 89 l10 26 277 -6 c152 -4 363 -10 467 -13z"/>
<path d="M18160 4571 c-42 -14 -618 -300 -624 -310 -5 -7 -42 -239 -101 -628
-8 -51 -12 -100 -9 -108 5 -12 28 -15 123 -15 316 1 1397 -33 1408 -43 6 -7
-7 -134 -27 -277 -6 -36 -17 -119 -25 -185 -38 -306 -46 -350 -62 -362 -13
-10 -84 -13 -276 -13 l-260 0 7 63 c4 34 14 102 22 150 9 49 13 95 10 103 -5
12 -88 14 -525 14 -286 0 -522 -4 -525 -8 -2 -4 -12 -66 -20 -137 -21 -170
-23 -189 -41 -325 -8 -63 -15 -134 -15 -157 l0 -43 498 0 c273 0 684 -3 912
-6 l415 -6 130 39 c545 165 648 198 661 218 7 11 20 67 29 125 8 58 20 130 25
160 10 56 41 259 60 385 5 39 23 153 40 255 48 302 55 359 45 369 -9 8 -215
13 -1100 27 -209 3 -386 7 -394 10 -10 3 -12 23 -10 82 l4 77 -240 8 c-132 4
-246 10 -252 12 -9 3 -11 21 -7 67 11 108 -3 101 218 94 105 -3 335 -8 511
-11 312 -5 467 -8 1035 -21 227 -5 277 -4 286 7 17 22 56 371 43 380 -6 3
-291 7 -632 8 -342 0 -777 3 -967 6 -190 2 -356 1 -370 -4z"/>
<path d="M28025 4381 c-109 -56 -205 -101 -212 -101 -7 0 -13 -4 -13 -10 0 -5
-4 -10 -10 -10 -18 0 -178 -81 -193 -98 -9 -10 -17 -48 -20 -97 -8 -109 -24
-289 -37 -415 -22 -222 -23 -237 -13 -243 11 -7 414 -20 1073 -37 217 -5 423
-12 458 -16 l62 -6 0 -80 c0 -45 -4 -131 -10 -192 -5 -61 -14 -178 -20 -261
-13 -176 -19 -238 -26 -282 -5 -33 -5 -33 -62 -34 -189 -2 -498 3 -504 9 -3 4
0 74 9 156 8 82 11 152 6 156 -4 5 -251 10 -548 12 l-540 3 -7 -110 c-4 -60
-14 -207 -22 -325 -14 -200 -14 -216 1 -228 12 -8 68 -12 192 -12 97 0 397 -5
666 -10 270 -5 615 -10 767 -10 l277 -1 137 41 c76 23 156 47 178 54 23 8 133
42 246 76 113 35 212 70 221 79 16 16 19 38 79 671 12 118 30 293 40 389 11
95 20 195 20 221 l0 47 -322 7 c-772 16 -1205 27 -1225 31 -21 5 -23 11 -23
84 l0 78 -235 7 c-129 3 -249 9 -266 13 l-32 6 7 71 c4 39 11 75 16 80 8 8
1205 -9 1345 -19 114 -8 752 -15 761 -8 12 9 34 221 34 324 l0 66 -177 7 c-98
3 -560 8 -1028 11 l-850 6 -200 -100z"/>
<path d="M24397 4458 c-3 -8 -8 -46 -11 -84 -4 -38 -11 -109 -16 -159 -5 -49
-14 -144 -20 -210 -6 -66 -15 -156 -20 -200 -5 -44 -14 -129 -20 -190 -6 -60
-15 -150 -20 -200 -15 -139 -28 -279 -40 -405 -11 -124 -32 -336 -55 -550 -7
-74 -19 -193 -25 -265 -7 -71 -15 -158 -19 -193 -4 -35 -5 -65 -1 -67 3 -2
145 -6 315 -9 171 -4 396 -9 502 -12 114 -3 194 -1 197 4 3 5 10 61 16 123 5
63 14 159 19 214 6 55 19 200 31 322 21 226 25 252 44 266 12 8 428 9 494 0
33 -4 43 -10 48 -28 4 -18 -14 -283 -31 -435 -2 -19 -7 -83 -10 -141 l-7 -107
398 -6 c220 -4 452 -9 516 -10 l117 -3 5 46 c4 25 15 168 26 316 47 644 101
1345 131 1693 11 134 19 245 17 247 -6 6 -293 15 -633 20 -192 3 -496 10 -675
15 -179 5 -537 12 -796 16 -401 5 -472 4 -477 -8z m1525 -341 c10 -16 10 -68
-2 -207 -5 -63 -12 -144 -15 -180 -3 -36 -10 -114 -15 -175 -6 -60 -17 -176
-24 -256 -7 -81 -16 -152 -20 -158 -5 -8 -83 -11 -256 -11 -275 0 -280 1 -280
63 0 18 6 102 15 187 8 85 21 234 30 330 9 96 17 184 18 195 2 19 -5 20 -268
25 -148 3 -276 9 -282 13 -14 9 -19 178 -5 192 4 4 252 5 552 1 411 -5 546
-10 552 -19z"/>
<path d="M6316 2009 c-123 -10 -301 -40 -415 -70 -123 -33 -307 -127 -372
-191 -74 -73 -93 -114 -97 -215 -4 -72 -1 -89 22 -140 70 -153 320 -291 629
-347 169 -31 309 -38 971 -49 779 -14 692 -26 695 94 l2 67 -283 6 c-156 3
-449 8 -653 11 -515 8 -620 21 -800 96 -189 78 -254 194 -184 330 40 79 184
166 344 207 149 39 258 44 760 35 259 -5 560 -9 670 -9 l200 1 9 78 c5 42 7
79 5 81 -2 2 -245 7 -539 10 -294 4 -607 8 -695 10 -88 2 -209 0 -269 -5z"/>
<path d="M8532 1969 c-46 -5 -114 -15 -152 -23 -234 -49 -305 -178 -305 -551
0 -153 3 -176 23 -227 29 -72 53 -102 108 -134 88 -52 205 -73 474 -85 281
-13 1076 -6 1215 11 171 20 259 62 321 152 53 78 78 244 72 478 -3 120 -7 153
-24 190 -50 109 -161 161 -389 181 -152 13 -1240 20 -1343 8z m1258 -197 c108
-20 138 -51 147 -151 7 -80 -14 -314 -34 -362 -18 -47 -60 -84 -111 -100 -86
-27 -1078 -17 -1239 12 -46 8 -72 20 -100 44 l-38 33 1 198 c1 136 5 199 13
202 6 2 11 10 11 19 0 30 40 71 92 93 45 20 76 25 198 29 204 8 994 -5 1060
-17z"/>
<path d="M10623 1968 c-6 -7 -16 -112 -22 -233 -7 -121 -16 -285 -21 -365 -5
-80 -12 -202 -16 -272 l-7 -128 190 0 c141 0 193 3 200 13 5 6 10 37 11 67 1
30 11 208 22 395 17 299 22 342 37 353 15 11 147 13 738 9 757 -6 800 -8 926
-53 153 -55 148 -197 -8 -267 -137 -61 -156 -62 -865 -62 -456 0 -650 -3 -658
-11 -7 -7 -10 -41 -8 -85 l3 -74 460 -5 460 -5 75 -36 c280 -136 412 -200 463
-223 l58 -26 277 0 277 0 -175 80 c-96 44 -183 84 -192 90 -10 5 -25 10 -33
10 -8 0 -15 5 -15 10 0 6 -6 10 -13 10 -7 0 -55 21 -107 46 -52 26 -101 47
-108 47 -8 0 -9 4 -3 10 5 5 56 17 113 27 259 45 450 137 505 243 33 65 8 193
-48 244 -102 92 -296 156 -572 187 -172 20 -1929 23 -1944 4z"/>
<path d="M13566 1958 c-4 -22 -31 -543 -43 -848 l-6 -145 173 -2 c95 -1 183 2
195 7 20 8 22 15 24 122 1 62 5 123 7 135 l6 21 746 5 747 4 125 26 c220 44
352 99 437 183 64 63 81 114 64 190 -26 116 -156 206 -386 265 -201 53 -178
51 -1162 56 l-922 4 -5 -23z m1871 -173 c100 -19 198 -67 224 -108 21 -35 19
-84 -6 -122 -24 -38 -95 -78 -183 -104 l-87 -25 -730 -6 c-401 -3 -730 -5
-731 -5 -3 0 17 344 21 363 l5 22 704 0 c583 0 718 -3 783 -15z"/>
<path d="M16835 1970 c-243 -22 -353 -66 -410 -164 -39 -67 -65 -212 -65 -365
0 -321 70 -420 335 -478 151 -33 1425 -33 1585 0 137 28 221 84 261 172 43 98
53 499 14 610 -34 100 -131 167 -285 199 -142 29 -1194 48 -1435 26z m1132
-190 c162 -11 210 -28 239 -86 17 -35 19 -59 17 -212 -3 -197 -12 -243 -57
-288 -52 -52 -100 -58 -521 -56 -757 4 -859 14 -919 95 -19 26 -21 42 -22 210
-1 151 2 189 16 222 29 68 75 98 170 115 63 11 918 11 1077 0z"/>
<path d="M19097 1944 c-3 -5 -8 -232 -12 -505 l-8 -496 174 -7 c96 -4 182 -4
191 -1 10 4 20 21 22 38 3 18 7 200 9 405 3 235 8 377 15 385 17 20 1349 3
1497 -19 222 -33 317 -100 287 -202 -16 -53 -56 -86 -137 -115 -138 -49 -173
-50 -822 -43 l-601 6 -4 -57 c-2 -32 -2 -72 0 -89 l4 -31 411 -2 412 -2 110
-51 c61 -28 201 -95 312 -149 l202 -98 283 -7 c194 -4 280 -3 273 4 -5 6 -73
38 -150 72 -77 35 -178 80 -223 101 -46 22 -86 39 -88 39 -2 0 -40 18 -85 40
-45 22 -87 40 -92 40 -6 0 -23 -10 -37 -22 -14 -13 -9 -7 12 13 33 32 46 37
103 43 253 26 510 160 530 276 40 237 -257 389 -820 419 -239 13 -1761 26
-1768 15z"/>
<path d="M23015 1890 c-11 -4 -126 -117 -255 -251 -129 -134 -341 -350 -470
-482 -129 -131 -236 -245 -238 -253 -3 -12 33 -14 241 -14 l244 0 99 108 c54
59 114 123 134 142 l35 36 190 -7 c105 -4 433 -10 729 -14 l540 -7 55 -52 c31
-28 102 -94 157 -147 l101 -96 244 -5 c134 -3 246 -4 249 -1 3 3 -34 41 -82
86 -48 45 -282 276 -520 513 l-433 432 -290 6 c-645 13 -711 14 -730 6z m918
-409 c77 -78 135 -146 132 -152 -5 -7 -37 -8 -94 -5 -47 3 -292 8 -545 12
l-459 6 -60 -59 c-33 -32 27 34 134 146 l194 203 280 -5 279 -6 139 -140z"/>
<path d="M24734 1855 c-6 -14 1 -144 8 -150 2 -2 200 -6 440 -10 240 -5 441
-11 447 -14 6 -4 12 -128 16 -326 6 -328 12 -506 17 -510 2 -1 89 -4 193 -6
l190 -4 1 145 c0 80 -3 260 -8 400 -4 140 -5 265 -2 278 l5 24 444 -8 445 -7
0 80 c0 53 -4 84 -13 91 -8 7 -100 11 -252 12 -132 0 -487 5 -790 10 -851 15
-1134 13 -1141 -5z"/>
<path d="M28445 1850 c-110 -11 -225 -31 -231 -41 -3 -5 -12 -9 -21 -9 -9 0
-36 -10 -61 -22 -101 -51 -138 -172 -129 -428 14 -404 126 -510 575 -541 211
-14 1303 -6 1397 10 167 30 255 88 291 192 15 45 18 82 17 231 -3 362 -47 474
-217 541 -101 41 -228 56 -551 67 -339 11 -950 11 -1070 0z m1025 -189 c286
-9 344 -18 389 -60 46 -43 55 -95 56 -296 0 -200 -5 -223 -63 -261 -63 -43
-141 -47 -650 -40 -778 11 -811 19 -841 191 -14 83 -16 302 -2 351 18 65 63
97 161 114 61 10 622 11 950 1z"/>
<path d="M27225 1831 c-3 -6 -1 -164 5 -353 15 -542 21 -646 35 -658 8 -7 79
-9 196 -8 l184 3 -3 70 c-2 39 -9 261 -17 495 -7 234 -17 433 -20 443 -6 15
-25 17 -190 17 -104 0 -186 -4 -190 -9z"/>
<path d="M30763 1801 c-67 -11 -102 -37 -103 -76 -1 -66 31 -882 36 -912 l5
-33 224 0 225 0 -5 103 c-12 226 -25 523 -25 559 0 28 4 38 15 38 14 0 245
-91 1060 -418 757 -304 810 -321 945 -307 74 8 116 26 125 54 5 18 -4 224 -35
785 -7 123 -14 182 -23 188 -15 10 -424 11 -430 1 -3 -5 -1 -82 4 -173 16
-331 21 -530 13 -530 -8 0 -371 142 -449 176 -16 7 -54 22 -84 34 -30 11 -74
30 -97 41 -24 10 -47 19 -51 19 -4 1 -26 9 -48 20 -22 11 -44 19 -48 20 -8 0
-25 7 -102 41 -46 20 -322 131 -350 141 -16 5 -43 16 -60 23 -16 7 -59 25 -95
39 -36 15 -74 31 -85 36 -11 5 -69 28 -130 50 -60 23 -119 46 -130 50 -79 31
-214 44 -302 31z"/>
<path d="M22879 883 c-13 -16 -12 -17 4 -4 9 7 17 15 17 17 0 8 -8 3 -21 -13z"/>
</g>
</svg>
